<svg width="179" height="51" viewBox="0 0 179 51" fill="none" xmlns="http://www.w3.org/2000/svg">
<path d="M1.29552 1.47233C1.22728 1.63437 1.20453 12.5603 1.22728 25.7316L1.29552 49.6899L26.9539 49.7594L52.5895 49.8057V25.5001V1.19455H26.9994C6.732 1.19455 1.36376 1.264 1.29552 1.47233ZM52.0208 25.5001V49.227H26.8857H1.75046L1.68222 25.7316C1.65947 12.8149 1.68222 2.09733 1.75046 1.9353C1.8187 1.70382 6.98222 1.65752 26.9311 1.70382L52.0208 1.77326V25.5001Z" fill="#C0CBD1"/>
<path d="M18.81 7.12043C11.5537 7.81488 7.86875 9.43525 6.32197 12.6065L5.73056 13.7871V25.3843C5.73056 38.7871 5.68506 38.4399 7.66403 40.4769C9.14257 41.9584 11.5082 43.1852 14.3516 43.9491C16.1031 44.4121 17.2632 44.551 20.3567 44.6436L24.1554 44.7825V42.7686V40.7778H22.8589C19.8108 40.7547 16.6263 39.6204 15.216 38.0232C13.0323 35.5464 12.7821 29.7593 14.8293 29.088C15.5344 28.8565 16.2168 29.4121 17.7636 31.4954C19.5379 33.8797 20.7662 34.9214 22.313 35.3843C24.4967 36.0093 27.5447 35.3612 27.7494 34.2038C28.0224 32.8149 27.2035 32.1899 22.8134 30.3843C19.4469 28.9954 17.8318 28.0464 16.4215 26.6112C13.8739 24.0649 13.3052 20.2686 14.9885 17.1204C16.3306 14.5973 19.7881 12.1204 22.7451 11.5417L24.1554 11.264V9.01858V6.75006L23.0863 6.77321C22.4722 6.79636 20.5615 6.93525 18.81 7.12043Z" fill="#C0CBD1"/>
<path d="M28.4787 8.99539V11.3102L30.4804 11.6806C32.7324 12.1204 34.0744 12.1898 34.2791 11.8426C34.3474 11.7037 34.6658 11.6111 34.9843 11.6111C36.2809 11.6111 38.7603 15.2917 39.0787 17.6528C39.3517 19.7824 37.8276 21.8195 36.2354 21.4491C35.8714 21.3796 34.916 20.7084 34.0744 19.9908C31.1856 17.4908 30.4349 16.9583 29.4113 16.7037C27.6143 16.2871 25.9766 17.0741 25.9766 18.3704C25.9766 19.8519 26.75 20.3843 31.3221 22.0278C34.6886 23.2315 36.5311 24.25 37.7366 25.5695C38.9877 26.9352 39.3289 27.6991 39.6474 29.5972C40.1023 32.4213 39.1015 35.1528 36.7585 37.4445C34.8706 39.2732 31.5723 40.7778 29.3431 40.7778H28.4787V42.7685V44.7593L33.5512 44.6435C39.056 44.5509 40.1706 44.3426 42.7182 43.0926C44.5379 42.1898 45.971 40.8935 46.7899 39.3658L47.4723 38.1158V25.7315V13.3472L46.7671 12.0741C45.1066 9.06483 41.8538 7.74539 34.9388 7.21298C33.21 7.09724 31.0263 6.91205 30.1392 6.84261L28.4787 6.68057V8.99539Z" fill="#C0CBD1"/>
<path d="M160.062 13.3461C158.644 15.6153 158.375 15.8461 156.612 16.2691C155.577 16.5384 154.274 16.6538 153.775 16.5768C152.587 16.3461 152.28 17.1538 153.2 17.9999C153.775 18.4999 154.389 18.6153 155.692 18.4999C156.65 18.3845 157.417 18.423 157.417 18.6153C157.417 19.0768 151.629 24.8845 150.594 25.4614C149.789 25.8845 149.75 25.8461 149.75 24.5384C149.75 23.7691 149.98 22.5768 150.287 21.8461C151.399 19.2307 149.022 19.8845 147.795 22.5384C146.569 25.3076 146.952 27.4999 148.83 28.1922C150.134 28.6922 151.82 27.923 153.89 25.8845L155.5 24.2691V25.7307C155.5 27.6153 156.574 29.7691 157.8 30.3845C159.065 31.0384 161.059 30.9999 161.595 30.3845C162.132 29.7307 161.749 29.3461 160.637 29.3461C160.1 29.3461 159.487 28.9614 159.104 28.3845C158.299 27.1153 158.567 22.423 159.64 19.3461C160.33 17.3076 160.407 17.2307 162.247 16.7691C163.282 16.5384 165.429 16.3076 167.039 16.3076C170.335 16.2691 171.179 15.6153 169.454 14.4999C168.534 13.8461 165.812 13.8845 162.707 14.5768L161.634 14.8076L162.247 13.3845C162.86 11.923 162.745 10.8845 162.017 10.8845C161.787 10.8845 160.905 11.9999 160.062 13.3461Z" fill="#C0CBD1"/>
<path d="M100.108 11.9999C97.7314 13.4614 94.2048 18.0768 92.7864 21.5384C92.4031 22.3845 91.7898 23.0384 90.9848 23.3845C89.9498 23.8461 89.8731 23.923 90.6398 23.9614C91.6748 23.9614 91.6748 23.9999 90.6781 26.8076C90.2564 28.0384 89.9498 29.6922 90.0264 30.4614C90.1414 31.6153 90.2948 31.8461 91.1381 31.9614C91.9048 32.0384 92.4414 31.6537 93.7064 30.1537C95.2781 28.3076 97.8081 26.3076 99.2264 25.7691C99.8398 25.5384 99.9164 25.8076 99.8398 27.7307C99.7631 30.1537 100.3 31.4614 101.45 31.8461C102.293 32.1153 103.75 31.7691 103.75 31.2691C103.75 31.1153 103.405 30.8845 102.983 30.7691C102.37 30.6153 102.216 30.2307 102.216 28.8845C102.216 27.9999 102.408 26.5768 102.638 25.7691C103.136 23.9614 102.638 23.1922 100.913 23.1922C99.4564 23.1922 96.3131 24.6153 94.6264 26.0768C93.9364 26.6537 93.2848 27.0384 93.2081 26.9614C93.0931 26.8461 93.2848 25.9999 93.6298 24.9999C94.0898 23.6153 94.5881 23.0384 95.8914 22.2307C99.5331 20.1153 103.75 15.2691 103.75 13.2691C103.75 12.6537 102.331 11.2691 101.756 11.2691C101.488 11.2691 100.76 11.6153 100.108 11.9999ZM101.603 14.0384C101.105 15.7307 96.3131 20.8461 95.7764 20.3076C95.3931 19.9614 98.2298 15.7691 99.6864 14.4999C101.45 12.9614 101.986 12.8461 101.603 14.0384Z" fill="#C0CBD1"/>
<path d="M134.608 12.2692C130.851 13.1923 128.283 14.7692 128.283 16.1153C128.283 17.0769 128.82 17.3461 129.28 16.6153C129.586 16.0769 132.73 14.7307 133.688 14.7307C134.301 14.7307 134.186 15.0769 132.768 17.1923C131.886 18.5384 130.851 20.1923 130.506 20.8461C130.046 21.6923 129.548 22.0384 128.896 22.0384C125.983 22.0384 126.021 24.0384 128.935 24.923C128.973 24.923 128.743 25.8846 128.436 27.0384C127.746 29.7307 127.746 31.6538 128.436 31.6538C129.28 31.6538 129.855 30.6923 130.966 27.5C131.925 24.7692 132.116 24.5384 133.151 24.423C134.953 24.2307 139.246 26.0769 142.926 28.5769C146.453 31 147.833 31.423 147.833 30.1538C147.833 29.1153 145.38 27.1153 141.93 25.3077C140.32 24.4615 139.016 23.6538 139.016 23.5C139.016 23.3846 139.706 23.1538 140.511 23C144.306 22.3461 148.983 19 148.983 16.8846C148.983 15.5769 147.641 14.0769 145.61 13.1538C144.191 12.5384 142.85 12.3077 139.591 12.1923C137.291 12.1538 135.03 12.1538 134.608 12.2692ZM143.118 14.923C145.648 15.6923 146.223 16.3461 145.38 17.5769C144.345 19.1923 141.623 20.5 137.521 21.3461C135.375 21.8077 133.535 22.0384 133.381 21.8846C133.19 21.7307 133.918 19.9615 134.991 17.9615L136.87 14.3461H139.016C140.205 14.3461 142.045 14.6153 143.118 14.923Z" fill="#C0CBD1"/>
<path d="M151.514 14.3846C150.977 15.0385 150.517 15.6923 150.517 15.8846C150.517 16.0769 150.402 16.5385 150.249 16.9231C150.057 17.4616 150.287 17.3846 151.13 16.6154C151.744 16.0385 152.702 15.3077 153.277 14.9616C153.89 14.5385 154.235 14.0769 154.082 13.7308C153.737 12.8462 152.549 13.1154 151.514 14.3846Z" fill="#C0CBD1"/>
<path d="M80.5585 14.6538C76.8018 15.9231 73.9651 17.6923 71.9335 20.0384C69.4035 22.8846 69.9401 25.7692 73.1985 27C73.8118 27.2308 76.4185 27.4231 79.0251 27.4231C83.0118 27.4231 83.8551 27.5384 84.5835 28.1154C85.4268 28.7692 85.4268 28.8846 84.8135 30C82.5135 34.4615 71.1285 38.8077 68.8668 36.0769C68.2151 35.2692 67.7168 35.3461 67.7168 36.2692C67.7168 37.4615 69.8635 38.5769 72.1635 38.5769C77.3001 38.5769 86.1168 34.2308 87.8418 30.8846C88.9151 28.8077 88.3401 26.8461 86.3851 25.6923C85.4651 25.1538 84.0468 24.9231 79.7918 24.7308C74.2718 24.5 73.4668 24.3077 73.4668 23.3846C73.4668 21.7307 78.6801 17.8846 82.6285 16.6538C85.2735 15.8077 88.4168 15.6538 89.6051 16.2692C90.4868 16.7692 90.5635 18.4615 89.7585 19.6154C88.9918 20.7307 89.6818 21.1538 90.9085 20.3461C91.9818 19.6538 92.3651 18.5 92.1735 16.6154C91.8668 13.4615 86.6151 12.5769 80.5585 14.6538Z" fill="#C0CBD1"/>
<path d="M164.892 20.3847C162.439 21.6924 160.867 23.7693 160.867 25.7693C160.867 29.0385 165.314 30.8077 168.917 28.9616C171.639 27.577 171.486 26.6539 168.687 27.6154C166.886 28.2308 165.007 28.1154 164.049 27.3462C163.206 26.6539 163.512 26.2693 164.816 26.2693C167.422 26.2308 170.834 23.8462 170.834 22.0001C170.834 21.577 170.489 20.9231 170.067 20.5001C169.109 19.5385 166.579 19.5001 164.892 20.3847ZM168.534 22.3462C168.534 23.4616 166.847 24.7308 164.624 25.2693C163.359 25.577 163.206 24.9616 164.241 23.7693C165.927 21.7693 168.534 20.9231 168.534 22.3462Z" fill="#C0CBD1"/>
<path d="M120.042 21.1538C119.659 21.2692 118.931 21.6154 118.432 21.9231C117.972 22.2308 117.436 22.3846 117.206 22.2692C117.014 22.1154 115.941 22.3846 114.829 22.8077C113.756 23.2692 112.836 23.5384 112.797 23.5C111.226 20.8846 110.881 20.8077 108.082 22.2308C105.667 23.5 104.402 25.4231 104.211 28.2308C104.057 30.2308 104.134 30.4231 105.131 31.2308C106.434 32.2308 108.274 32.1538 109.884 30.9615C111.072 30.0769 112.567 27.2308 112.567 25.8077C112.567 25 112.836 24.6154 113.564 24.3461C115.212 23.6923 115.289 23.8846 114.139 26.1923C113.526 27.4231 112.491 30.1538 111.839 32.3077L110.612 36.1923L109.194 36.4615C107.201 36.8077 102.026 38.0384 96.8124 39.3461C92.1357 40.5384 90.334 40.7692 90.334 40.1154C90.334 39.8461 90.104 39.8461 89.5674 40.1154C88.724 40.5769 88.5707 41.6538 89.2607 42.3461C90.0657 43.1538 92.7874 42.8461 100.339 41.0384C110.191 38.6538 109.884 38.6923 109.884 39.6538C109.884 40.5 110.996 40.9615 111.877 40.4615C112.222 40.2692 112.682 39.6154 112.951 38.9615C113.219 38.3461 113.526 37.8077 113.641 37.8077C113.717 37.8077 115.749 37.3846 118.087 36.8846C126.061 35.1154 130.737 34.5769 138.442 34.5384C145.841 34.5384 148.754 34.9231 150.939 36.1923C152.089 36.8461 153.201 36.6154 153.201 35.7308C153.201 34.0769 146.454 32.8077 137.599 32.8077C131.466 32.8077 125.026 33.4231 118.241 34.5769C116.171 34.9615 114.407 35.1538 114.292 35.0769C114.062 34.8461 115.097 30.9231 116.094 28.0384C117.359 24.5384 120.502 21.9615 121.959 23.1923C123.531 24.5 121.461 28.2308 118.202 29.9231C116.976 30.5769 116.017 31.2308 116.017 31.4231C116.017 32.1154 120.119 31.4231 121.346 30.5C123.339 29.1154 124.834 26.7692 124.834 25.0769C124.834 21.8461 123.071 20.3846 120.042 21.1538ZM109.999 24.0384C110.919 24.8461 110.919 24.9615 110.421 26.4231C109.731 28.2692 108.466 29.7308 107.507 29.7308C106.511 29.7308 106.242 28.7692 106.741 27.1154C107.162 25.7308 108.542 23.1923 108.887 23.1923C108.964 23.1923 109.462 23.5769 109.999 24.0384Z" fill="#C0CBD1"/>
<path d="M170.296 30.0768C170.181 30.2307 170.526 30.3076 171.025 30.1922C172.52 29.923 173.9 31.0384 173.9 32.5768C173.9 34.8461 171.331 35.9615 169.53 34.423C168.725 33.7692 168.725 33.7692 169.453 34.6153C171.063 36.5384 174.283 35.1153 174.283 32.5384C174.283 31.6922 173.976 31.0768 173.286 30.5384C172.251 29.7307 170.641 29.4615 170.296 30.0768Z" fill="#C0CBD1"/>
<path d="M168.916 31.2307C168.725 31.6537 168.533 32.3845 168.571 32.8845C168.61 33.5768 168.686 33.5383 168.878 32.5768C169.031 31.923 169.3 31.1922 169.453 30.9614C169.606 30.6922 169.645 30.4999 169.53 30.4999C169.415 30.4999 169.146 30.846 168.916 31.2307Z" fill="#C0CBD1"/>
<path d="M170.489 32.6922C170.527 33.4999 170.604 33.846 170.719 33.4614C170.949 32.5768 171.485 32.6153 171.984 33.6153C172.252 34.0383 172.52 34.3076 172.635 34.1922C172.75 34.0768 172.635 33.7307 172.405 33.423C172.099 33.0383 172.06 32.8076 172.367 32.6153C173.21 32.0768 172.75 31.2691 171.6 31.2691C170.527 31.2691 170.45 31.346 170.489 32.6922ZM172.367 32.0383C172.367 32.2307 172.022 32.423 171.6 32.423C171.179 32.423 170.834 32.2307 170.834 32.0383C170.834 31.8076 171.179 31.6537 171.6 31.6537C172.022 31.6537 172.367 31.8076 172.367 32.0383Z" fill="#C0CBD1"/>
</svg>
