<svg width="18" height="16" viewBox="0 0 18 16" fill="none" xmlns="http://www.w3.org/2000/svg">
<path d="M1.10059 7.27979C0.548301 7.27979 0.100586 7.7275 0.100586 8.27979C0.100586 8.83207 0.548301 9.27979 1.10059 9.27979V7.27979ZM16.8077 8.98689C17.1982 8.59637 17.1982 7.9632 16.8077 7.57268L10.4437 1.20872C10.0532 0.818193 9.42004 0.818193 9.02952 1.20872C8.63899 1.59924 8.63899 2.23241 9.02952 2.62293L14.6864 8.27979L9.02952 13.9366C8.63899 14.3272 8.63899 14.9603 9.02952 15.3509C9.42004 15.7414 10.0532 15.7414 10.4437 15.3509L16.8077 8.98689ZM1.10059 8.27979V9.27979H16.1006V8.27979V7.27979H1.10059V8.27979Z" fill="#06545B"/>
</svg>
