<svg width="40" height="41" viewBox="0 0 40 41" fill="none" xmlns="http://www.w3.org/2000/svg">
<rect y="0.150391" width="40" height="40" rx="20" fill="#F1F0EC"/>
<g clip-path="url(#clip0_3285_62354)">
<path d="M20.0043 16.1077C17.7329 16.1077 15.9007 17.9112 15.9007 20.1472C15.9007 22.3831 17.7329 24.1866 20.0043 24.1866C22.2757 24.1866 24.1079 22.3831 24.1079 20.1472C24.1079 17.9112 22.2757 16.1077 20.0043 16.1077ZM20.0043 22.7733C18.5364 22.7733 17.3364 21.5956 17.3364 20.1472C17.3364 18.6987 18.5329 17.521 20.0043 17.521C21.4757 17.521 22.6722 18.6987 22.6722 20.1472C22.6722 21.5956 21.4722 22.7733 20.0043 22.7733ZM25.2329 15.9425C25.2329 16.4663 24.8043 16.8847 24.2757 16.8847C23.7436 16.8847 23.3186 16.4628 23.3186 15.9425C23.3186 15.4222 23.7472 15.0003 24.2757 15.0003C24.8043 15.0003 25.2329 15.4222 25.2329 15.9425ZM27.9507 16.8987C27.89 15.6366 27.5972 14.5187 26.6579 13.5976C25.7222 12.6765 24.5864 12.3882 23.3043 12.3249C21.9829 12.2511 18.0222 12.2511 16.7007 12.3249C15.4222 12.3847 14.2864 12.6729 13.3472 13.594C12.4079 14.5151 12.1186 15.6331 12.0543 16.8952C11.9793 18.196 11.9793 22.0948 12.0543 23.3956C12.115 24.6577 12.4079 25.7757 13.3472 26.6968C14.2864 27.6179 15.4186 27.9061 16.7007 27.9694C18.0222 28.0433 21.9829 28.0433 23.3043 27.9694C24.5864 27.9097 25.7222 27.6214 26.6579 26.6968C27.5936 25.7757 27.8864 24.6577 27.9507 23.3956C28.0257 22.0948 28.0257 18.1995 27.9507 16.8987ZM26.2436 24.7913C25.965 25.4804 25.4257 26.0112 24.7222 26.289C23.6686 26.7003 21.1686 26.6054 20.0043 26.6054C18.84 26.6054 16.3364 26.6968 15.2864 26.289C14.5864 26.0147 14.0472 25.4839 13.765 24.7913C13.3472 23.7542 13.4436 21.2933 13.4436 20.1472C13.4436 19.0011 13.3507 16.5366 13.765 15.503C14.0436 14.814 14.5829 14.2831 15.2864 14.0054C16.34 13.594 18.84 13.689 20.0043 13.689C21.1686 13.689 23.6722 13.5976 24.7222 14.0054C25.4222 14.2796 25.9614 14.8104 26.2436 15.503C26.6614 16.5401 26.565 19.0011 26.565 20.1472C26.565 21.2933 26.6614 23.7577 26.2436 24.7913Z" fill="black"/>
</g>
<defs>
<clipPath id="clip0_3285_62354">
<rect width="16" height="18" fill="white" transform="translate(12 11.1504)"/>
</clipPath>
</defs>
</svg>
